<svg width="257" height="45" viewBox="0 0 257 45" xmlns="http://www.w3.org/2000/svg" fill="none"> <g> <path fill="#727272" d="M108.141 13.7543C111.434 13.7543 114.144 14.7893 116.272 16.859C118.414 18.9289 119.485 21.5606 119.485 24.7523C119.485 24.8135 119.481 24.8745 119.481 24.9353L119.513 24.8976V33.7032C119.513 37.1486 118.496 39.7803 116.461 41.5965C114.427 43.4124 111.642 44.3198 108.109 44.3198C106.557 44.3198 105.185 44.1395 103.993 43.7791C102.803 43.4185 101.738 42.8915 100.802 42.1973C99.8652 41.5164 99.1288 40.7615 98.5934 39.9337C98.0695 39.1234 97.8022 38.7088 97.791 38.6915L102.589 36.2673C102.593 36.2735 102.76 36.5341 103.09 37.0483C103.425 37.5691 103.834 38.0234 104.315 38.4107C104.797 38.8111 105.346 39.1117 105.961 39.3119C106.577 39.5122 107.247 39.6124 107.969 39.6124C109.722 39.6123 111.061 39.1254 111.984 38.1508C112.806 37.2834 113.259 36.1246 113.35 34.6758C111.816 35.3882 110.081 35.7489 108.141 35.7489C104.849 35.7489 102.139 34.714 100.011 32.6441C97.896 30.5609 96.8388 27.9304 96.8387 24.7523C96.8387 21.5472 97.9022 18.9156 100.03 16.859C102.158 14.7892 104.862 13.7543 108.141 13.7543ZM108.161 19.043C106.676 19.043 105.431 19.5774 104.428 20.6456C103.424 21.7006 102.922 23.0696 102.922 24.7523C102.922 26.408 103.416 27.7773 104.407 28.8589C105.41 29.9271 106.662 30.4601 108.161 30.4602C109.633 30.4602 110.865 29.927 111.855 28.8589C112.859 27.7773 113.361 26.408 113.361 24.7523C113.361 23.0697 112.859 21.7006 111.855 20.6456C110.852 19.5773 109.62 19.043 108.161 19.043ZM168.471 13.7543C171.255 13.7543 173.55 14.7493 175.357 16.7388C177.164 18.7285 178.067 21.3729 178.067 24.6712C178.067 27.903 177.15 30.5608 175.317 32.6441C173.496 34.7139 171.181 35.7489 168.371 35.7489C166.979 35.7488 165.707 35.4748 164.556 34.9273C163.418 34.3798 162.561 33.6651 161.986 32.7838L161.866 32.8048V43.6421H155.562V14.4361H161.586V16.9191H161.706C162.322 15.9979 163.219 15.243 164.396 14.6555C165.587 14.0548 166.946 13.7543 168.471 13.7543ZM166.845 19.0024C165.4 19.0024 164.181 19.5368 163.19 20.6051C162.214 21.66 161.726 23.0356 161.726 24.7313C161.726 26.4138 162.213 27.7968 163.19 28.8784C164.167 29.9468 165.387 30.4811 166.845 30.4811C168.304 30.481 169.522 29.9466 170.499 28.8784C171.476 27.7968 171.964 26.4213 171.964 24.7523C171.964 23.0296 171.469 21.6406 170.478 20.5856C169.501 19.5308 168.291 19.0026 166.845 19.0024ZM84.5249 13.7543C87.8172 13.7543 90.5276 14.7893 92.6557 16.859C94.7971 18.9289 95.8682 21.5606 95.8682 24.7523C95.8681 27.9304 94.8033 30.5609 92.6753 32.6441C90.5472 34.7139 87.8306 35.7489 84.5249 35.7489C81.2324 35.7489 78.5221 34.714 76.394 32.6441C74.2794 30.5609 73.2222 27.9304 73.2221 24.7523C73.2221 21.5472 74.2856 18.9156 76.4136 16.859C78.5417 14.7891 81.2458 13.7543 84.5249 13.7543ZM84.5445 19.043C83.059 19.0431 81.8146 19.5774 80.811 20.6456C79.8072 21.7006 79.3055 23.0696 79.3055 24.7523C79.3056 26.408 79.801 27.7773 80.7913 28.8589C81.7949 29.9267 83.0459 30.46 84.5445 30.4602C86.0165 30.4602 87.2484 29.9269 88.2388 28.8589C89.2425 27.7773 89.7441 26.408 89.7442 24.7523C89.7442 23.0696 89.2426 21.7006 88.2388 20.6456C87.2349 19.5773 86.0033 19.043 84.5445 19.043ZM131.758 13.7543C135.05 13.7544 137.761 14.7892 139.889 16.859C142.03 18.9289 143.101 21.5606 143.101 24.7523C143.101 27.9304 142.037 30.5609 139.909 32.6441C137.781 34.7139 135.064 35.7488 131.758 35.7489C128.466 35.7489 125.755 34.7139 123.627 32.6441C121.513 30.5609 120.455 27.9304 120.455 24.7523C120.455 21.5472 121.519 18.9156 123.647 16.859C125.775 14.7893 128.479 13.7543 131.758 13.7543ZM131.778 19.043C130.292 19.043 129.048 19.5774 128.044 20.6456C127.04 21.7006 126.537 23.0696 126.537 24.7523C126.537 26.408 127.033 27.7773 128.023 28.8589C129.027 29.9271 130.279 30.4601 131.778 30.4602C133.25 30.4602 134.482 29.9271 135.472 28.8589C136.476 27.7773 136.977 26.408 136.977 24.7523C136.977 23.0697 136.476 21.7006 135.472 20.6456C134.468 19.5773 133.237 19.043 131.778 19.043ZM188.265 13.7543C189.51 13.7543 190.641 13.882 191.658 14.1357C192.688 14.3761 193.592 14.7228 194.368 15.1767C195.144 15.6306 195.806 16.1314 196.355 16.6788L197.178 17.5004L193.585 20.5646C193.576 20.556 193.401 20.3894 193.063 20.0644C192.715 19.7173 192.279 19.403 191.757 19.1226C191.236 18.829 190.673 18.6224 190.071 18.5022C189.469 18.3687 188.861 18.3024 188.245 18.3024C187.375 18.3024 186.679 18.4626 186.157 18.7831C185.635 19.1036 185.374 19.504 185.374 19.9847C185.374 20.492 185.621 20.9065 186.117 21.2269C186.625 21.5474 187.931 21.9479 190.032 22.4286C192.682 23.0295 194.602 23.8568 195.793 24.9115C196.998 25.9665 197.6 27.3031 197.6 28.919C197.6 30.9619 196.757 32.6115 195.071 33.8667C193.398 35.1219 191.163 35.7488 188.366 35.7489C186.893 35.7489 185.608 35.5949 184.51 35.2878C183.426 34.994 182.449 34.5673 181.579 34.0065C180.723 33.4456 180.013 32.8311 179.451 32.1634L178.608 31.142L182.362 28.0764C182.362 28.0764 182.563 28.318 182.964 28.7988C183.379 29.2659 183.861 29.6792 184.409 30.0396C184.958 30.4001 185.568 30.6742 186.237 30.8612C186.919 31.0481 187.702 31.142 188.586 31.142C189.576 31.142 190.352 30.9742 190.914 30.6404C191.477 30.3065 191.757 29.8261 191.757 29.1984C191.757 28.6377 191.496 28.2032 190.975 27.8961C190.466 27.5758 189.174 27.1826 187.101 26.7154C184.451 26.1145 182.53 25.2798 181.338 24.2115C180.161 23.1432 179.573 21.7941 179.572 20.165C179.572 18.2019 180.389 16.6451 182.022 15.4967C183.668 14.3352 185.749 13.7543 188.265 13.7543ZM205.76 26.8957C205.76 28.2174 206.068 29.2389 206.683 29.9599C207.312 30.6677 208.196 31.0219 209.334 31.0219C210.525 31.0218 211.522 30.5675 212.325 29.6595C213.128 28.7516 213.53 27.63 213.53 26.2949V14.4361H219.813V35.0684H213.891V32.3241H213.751C213.176 33.339 212.305 34.1661 211.141 34.8071C209.99 35.4347 208.651 35.7488 207.126 35.7489C204.73 35.7489 202.856 35.068 201.504 33.706C200.153 32.3439 199.477 30.4206 199.477 27.9367V14.4361H205.76V26.8957ZM60.4251 29.1188H72.6115V35.0684H54V6.38361H60.4251V29.1188ZM151.82 35.0684H145.537V14.4361H151.82V35.0684ZM249.491 13.7543C251.967 13.7543 253.835 14.4626 255.093 15.8781C256.364 17.2937 257 19.2772 257 21.8277V35.0684H250.736V23.0085C250.736 21.6466 250.447 20.6252 249.872 19.9442C249.296 19.2634 248.433 18.9228 247.283 18.9228C246.158 18.9228 245.221 19.3633 244.472 20.2446C243.722 21.1127 243.347 22.2214 243.347 23.5702V35.0684H237.064V23.0294C237.064 21.6673 236.769 20.6386 236.18 19.9442C235.605 19.25 234.748 18.9032 233.61 18.9032C232.486 18.9033 231.549 19.35 230.8 20.2446C230.064 21.1394 229.696 22.2619 229.696 23.6107V35.0684H223.391V14.4361H229.434V17.4207H229.555C230.144 16.339 231.034 15.4567 232.225 14.7757C233.416 14.0947 234.722 13.7543 236.141 13.7543C237.599 13.7544 238.89 14.0887 240.014 14.7561C241.152 15.4237 241.962 16.345 242.444 17.5199C243.274 16.2381 244.299 15.2907 245.517 14.6765C246.734 14.0623 248.059 13.7543 249.491 13.7543ZM148.668 4.31982C149.685 4.31982 150.529 4.65396 151.199 5.32167C151.881 5.97583 152.222 6.80354 152.222 7.80464C152.222 8.79259 151.881 9.6276 151.199 10.3086C150.529 10.9896 149.685 11.3314 148.668 11.3314C147.678 11.3313 146.835 10.9895 146.139 10.3086C145.457 9.62756 145.115 8.7927 145.115 7.80464C145.115 6.80343 145.457 5.97587 146.139 5.32167C146.835 4.65407 147.678 4.31993 148.668 4.31982Z" clip-rule="evenodd" fill-rule="evenodd"/> </g> <g> <g> <path fill="#727272" d="M0 33C0 36.8653 3.13384 39.9987 6.99958 39.9987L14 39.9999C13.2133 39.9999 12.4947 39.5522 12.1486 38.8458L11.0002 36.5006C9.95114 34.359 7.77413 33.0014 5.38922 33.0012L0 33ZM6.27879e-08 22.0075C6.27879e-08 25.8693 3.13386 29 6.99963 29L19 28.9925C18.2133 28.9925 17.4947 28.5453 17.1485 27.8395L16.0002 25.4963C14.9511 23.3566 12.7741 22.0002 10.3892 22L6.27879e-08 22.0075ZM17.417 0C19.8022 0 21.9791 1.35633 23.0283 3.49577L24.1777 5.83863C24.5198 6.53564 25.2245 6.97988 26 6.99056L7 7C3.13401 7 6.27879e-08 3.86978 6.27879e-08 0.00846622L17.417 0ZM13.417 11C15.8022 11 17.9791 12.3563 19.0283 14.4956L20.1777 16.8384C20.5198 17.5353 21.2245 17.9796 22 17.9902L7 18C3.13401 18 6.27879e-08 14.8699 6.27879e-08 11.0088L13.417 11Z"/> </g> <path fill="#727272" d="M40 0C40 3.86525 36.8662 6.99866 33.0004 6.99866L26 6.9999C26.7867 6.9999 27.5053 6.55222 27.8514 5.84583L28.9998 3.50057C30.0489 1.35903 32.2259 0.00140065 34.6108 0.0012436L40 0ZM40 11.0076C40 14.8694 36.8661 18 33.0004 18L22 17.9925C22.7868 17.9925 23.5053 17.5453 23.8515 16.8395L24.9998 14.4963C26.0489 12.3567 28.2259 11.0003 30.6108 11.0001L40 11.0076ZM22.583 33C20.1978 33 18.0209 34.3563 16.9717 36.4958L15.8223 38.8386C15.4803 39.5356 14.7755 39.9799 14 39.9906L33 40C36.866 40 40 36.8698 40 33.0085L22.583 33ZM27.583 22C25.1978 22 23.0209 23.3563 21.9717 25.4956L20.8223 27.8384C20.4802 28.5353 19.7755 28.9796 19 28.9902L33 29C36.866 29 40 25.8699 40 22.0088L27.583 22Z"/> </g> </svg>
